<svg width="62" height="62" viewBox="0 0 62 62" fill="none" xmlns="http://www.w3.org/2000/svg">
<path d="M46.4166 15.5832H15.5833C14.7655 15.5832 13.9813 15.908 13.403 16.4863C12.8248 17.0645 12.5 17.8488 12.5 18.6665C12.5 19.4843 12.8248 20.2685 13.403 20.8467C13.9813 21.425 14.7655 21.7498 15.5833 21.7498H46.4166C47.2344 21.7498 48.0186 21.425 48.5969 20.8467C49.1751 20.2685 49.5 19.4843 49.5 18.6665C49.5 17.8488 49.1751 17.0645 48.5969 16.4863C48.0186 15.908 47.2344 15.5832 46.4166 15.5832ZM46.4166 27.9165H15.5833C14.7655 27.9165 13.9813 28.2414 13.403 28.8196C12.8248 29.3978 12.5 30.1821 12.5 30.9998C12.5 31.8176 12.8248 32.6018 13.403 33.1801C13.9813 33.7583 14.7655 34.0832 15.5833 34.0832H46.4166C47.2344 34.0832 48.0186 33.7583 48.5969 33.1801C49.1751 32.6018 49.5 31.8176 49.5 30.9998C49.5 30.1821 49.1751 29.3978 48.5969 28.8196C48.0186 28.2414 47.2344 27.9165 46.4166 27.9165ZM52.5833 0.166504H9.41663C6.96337 0.166504 4.6106 1.14105 2.87589 2.87577C1.14118 4.61048 0.166626 6.96325 0.166626 9.4165V40.2498C0.166626 42.7031 1.14118 45.0559 2.87589 46.7906C4.6106 48.5253 6.96337 49.4998 9.41663 49.4998H45.1525L56.5608 60.939C56.8489 61.2248 57.1906 61.4509 57.5662 61.6043C57.9419 61.7577 58.3442 61.8355 58.75 61.8332C59.1544 61.8436 59.5557 61.7591 59.9216 61.5865C60.4847 61.3552 60.9667 60.9624 61.3069 60.4576C61.6471 59.9528 61.8303 59.3586 61.8333 58.7498V9.4165C61.8333 6.96325 60.8587 4.61048 59.124 2.87577C57.3893 1.14105 55.0365 0.166504 52.5833 0.166504ZM55.6666 51.319L48.6058 44.2273C48.3177 43.9416 47.976 43.7155 47.6003 43.562C47.2247 43.4086 46.8224 43.3308 46.4166 43.3332H9.41663C8.59888 43.3332 7.81462 43.0083 7.23638 42.4301C6.65814 41.8518 6.33329 41.0676 6.33329 40.2498V9.4165C6.33329 8.59875 6.65814 7.8145 7.23638 7.23626C7.81462 6.65802 8.59888 6.33317 9.41663 6.33317H52.5833C53.401 6.33317 54.1853 6.65802 54.7635 7.23626C55.3418 7.8145 55.6666 8.59875 55.6666 9.4165V51.319Z" fill="white"/>
</svg>
