<svg width="61" height="60" viewBox="0 0 61 60" fill="none" xmlns="http://www.w3.org/2000/svg">
<path d="M53.3201 33.0001C52.6601 33.0001 51.9701 32.7901 51.3101 32.6401C49.9735 32.3456 48.6601 31.9545 47.3801 31.4701C45.9883 30.9638 44.4585 30.9901 43.085 31.5439C41.7115 32.0978 40.5913 33.14 39.9401 34.4701L39.2801 35.8201C36.3581 34.1946 33.673 32.1758 31.3001 29.8201C28.9444 27.4471 26.9255 24.7621 25.3001 21.8401L26.5601 21.0001C27.8902 20.3488 28.9324 19.2287 29.4862 17.8552C30.0401 16.4816 30.0664 14.9518 29.5601 13.5601C29.0837 12.2774 28.6929 10.9645 28.3901 9.63009C28.2401 8.97009 28.1201 8.28009 28.0301 7.59009C27.6658 5.47695 26.5589 3.56332 24.9089 2.19381C23.2589 0.824303 21.1741 0.0889191 19.0301 0.120093H10.0301C8.73715 0.107953 7.45681 0.374533 6.27619 0.901684C5.09557 1.42884 4.04239 2.20418 3.18835 3.17494C2.33431 4.1457 1.69946 5.28907 1.32702 6.52723C0.954583 7.7654 0.853296 9.06927 1.03006 10.3501C2.62827 22.9182 8.36814 34.5957 17.343 43.538C26.3179 52.4803 38.0162 58.1776 50.5901 59.7301H51.7301C53.9423 59.7333 56.0782 58.9217 57.7301 57.4501C58.6791 56.6012 59.4373 55.5606 59.9545 54.397C60.4716 53.2335 60.736 51.9734 60.7301 50.7001V41.7001C60.6933 39.6162 59.9345 37.6097 58.5831 36.0231C57.2317 34.4364 55.3715 33.368 53.3201 33.0001V33.0001ZM54.8201 51.0001C54.8195 51.426 54.7283 51.847 54.5524 52.235C54.3765 52.6229 54.1201 52.969 53.8001 53.2501C53.4658 53.5411 53.074 53.7583 52.6501 53.8876C52.2262 54.0168 51.7798 54.0552 51.3401 54.0001C40.1048 52.5595 29.6688 47.4195 21.6782 39.391C13.6876 31.3624 8.59729 20.9021 7.21006 9.66009C7.16231 9.22065 7.20416 8.77608 7.33306 8.35327C7.46197 7.93045 7.67527 7.53816 7.96006 7.20009C8.24119 6.88009 8.58724 6.62362 8.97519 6.44774C9.36315 6.27187 9.7841 6.18063 10.2101 6.18009H19.2101C19.9077 6.16457 20.5889 6.39273 21.1365 6.8253C21.684 7.25788 22.0637 7.8678 22.2101 8.55009C22.3301 9.37009 22.4801 10.1801 22.6601 10.9801C23.0066 12.5615 23.4678 14.1156 24.0401 15.6301L19.8401 17.5801C19.4809 17.7449 19.1579 17.9789 18.8895 18.2689C18.6211 18.5588 18.4127 18.8989 18.2761 19.2697C18.1395 19.6404 18.0775 20.0345 18.0936 20.4293C18.1097 20.824 18.2037 21.2117 18.3701 21.5701C22.6877 30.8184 30.1218 38.2525 39.3701 42.5701C40.1004 42.8701 40.9197 42.8701 41.6501 42.5701C42.0242 42.4363 42.368 42.2295 42.6616 41.9617C42.9551 41.6939 43.1925 41.3704 43.3601 41.0101L45.2201 36.8101C46.771 37.3647 48.3538 37.8256 49.9601 38.1901C50.7601 38.3701 51.5701 38.5201 52.3901 38.6401C53.0723 38.7865 53.6823 39.1661 54.1148 39.7137C54.5474 40.2612 54.7756 40.9425 54.7601 41.6401L54.8201 51.0001Z" fill="white"/>
</svg>
