

<svg aria-hidden="true" style="position: absolute; width: 0; height: 0; overflow: hidden;" version="1.1" xmlns="http://www.w3.org/2000/svg" xmlns:xlink="http://www.w3.org/1999/xlink">
<defs>
<symbol id="trumpet-cat" viewBox="0 0 24 24">
  <path class="cls-1" d="M3.07.02c.14.06.66.52.8.71.14.18.37.33.63.41.07.02.31.07.54.11.23.04.45.08.51.09.09.02.11.02.15-.01.03-.02.2-.11.38-.2.54-.28.73-.4.98-.63.16-.15.3-.25.38-.27.12-.03.21.18.19.46-.01.22-.08.4-.33.91-.26.53-.3.65-.3.87,0,.15,0,.17.08.34.04.1.1.28.13.39.05.18.06.24.06.45,0,.23,0,.25-.07.49v.04s.12-.05.12-.05c.18-.06.46-.08.63-.03.14.04.33.12.32.14,0,0-.05,0-.11-.03-.29-.13-.62-.13-.92,0-.07.03-.09.05-.12.1-.06.12-.19.31-.38.55-.11.13-.19.24-.19.25s.04-.01.09-.04c.13-.06.33-.11.5-.13.25-.02.54.05,1.03.25.11.04.22.09.25.09.05.01.08.05.04.05,0,0-.16-.06-.34-.13-.41-.16-.53-.2-.73-.22-.27-.03-.56.02-.81.15-.1.05-.11.06-.13.15-.03.11-.12.2-.22.23l-.08.02.41.22c.23.12.42.22.42.22s.03-.03.06-.07c.14-.24.16-.25.41-.22.17.02.18.02.23-.02.07-.06.23-.05.36,0,.17.09.32.27.32.38,0,.02.03.05.07.08.09.06.15.2.15.36,0,.07,0,.15-.02.19l-.02.06.55.27.55.27.27.05c.69.12,1.08.03,1.46-.31.2-.18.32-.25.48-.26.14,0,.25.04.35.15.08.09.15.24.15.3,0,.03.02.05.06.06.13.05.38.18.46.25.05.05.11.12.14.2.06.12.06.13.06.33,0,.25-.05.41-.19.68-.2.39-.61.82-.79.83-.1,0-.26,0-.32-.02-.06-.01-.08,0-.17.05-.15.09-.33.14-.46.13-.24-.02-.37-.17-.52-.59-.03-.1-.09-.23-.13-.29-.08-.14-.35-.42-.53-.56-.17-.13-.41-.28-.43-.27,0,0-.02.06-.03.13-.03.24-.15.42-.33.5-.07.03-.12.04-.26.04-.32,0-.62-.09-1.02-.29-.13-.06-.24-.12-.24-.12s-.04.06-.08.13c-.29.51-.49.7-.72.69-.07,0-.13-.02-.19-.05-.11-.06-.15-.1-.05-.06.04.01.11.03.16.03.14,0,.26-.07.4-.21.17-.18.36-.52.33-.59-.02-.05-.4-.32-.57-.41-.19-.1-.39-.17-.49-.17-.16,0-.36.18-.66.6-.33.47-.42.56-.59.58-.16.02-.42.01-.58-.02-.23-.05-.4-.12-.95-.39-.28-.14-.59-.27-.67-.3-.28-.09-.39-.14-.46-.2-.05-.04-.06-.06-.03-.05.12.03.53.15.64.18.07.02.35.15.63.29.27.14.55.27.62.29.34.13.71.14.95.04.04-.02.08-.06.12-.13.25-.44.58-.86.8-1.01.32-.21.65-.19,1.01.07.16.12.29.18.38.18.12,0,.19-.11.14-.25q-.03-.08.01-.08c.22,0,.27-.3.08-.41-.04-.02-.13-.08-.2-.13-.26-.19-.46-.26-.79-.3l-.19-.03-.24.08c-.43.14-.81.36-.96.57-.14.18-.15.19-.26.18-.07,0-.12-.03-.19-.07-.15-.1-.5-.5-.68-.77-.09-.13-.23-.35-.32-.49s-.22-.32-.29-.4c-.23-.28-.52-.44-.77-.44-.08,0-.27.08-.37.15-.07.05-.08.03-.01-.05.07-.09.18-.17.3-.2.11-.03.25,0,.44.08.35.16.59.41,1.03,1.08.29.44.5.72.64.85l.11.1.09-.02c.12-.02.19-.07.22-.13.02-.05.02-.06-.07-.19-.23-.35-.28-.72-.12-.95l.04-.07-.14-.02c-.3-.05-.56-.14-.71-.25-.06-.05-.4-.52-.38-.54,0,0,.11.08.23.18.4.33.62.46.82.47q.12,0,.22-.07c.12-.1.2-.23.2-.35,0-.04,0-.11.02-.15.03-.09.02-.14-.02-.24-.02-.04-.03-.08-.03-.09,0,0,.05,0,.1.02.13.05.31.06.41.02.12-.04.11,0-.02.12l-.1.1.07.12c.04.07.08.13.1.15.05.05.13.09.18.07.05-.01.14-.11.13-.14,0,0,0-.03.03-.05.02-.02.05-.08.07-.14.03-.08.05-.11.12-.16.13-.1.31-.3.38-.44.04-.07.07-.13.07-.14,0-.01-.07.04-.31.23-.17.14-.25.18-.28.15-.04-.02-.02-.05.02-.04.03,0,.07-.01.16-.08.07-.05.19-.15.28-.21l.17-.12.04-.15c.04-.13.04-.18.04-.48s0-.36-.04-.52c-.1-.42-.28-.84-.48-1.08-.07-.08-.13-.14-.14-.14s-.04.05-.06.1c-.06.15-.26.53-.35.67-.36.55-.74.8-1.12.73-.07-.01-.17-.04-.22-.06l-.1-.04-.24.08c-.99.33-1.53.28-1.98-.18-.11-.12-.13-.13-.15-.1-.03.05-.13.31-.14.4v.08s.15,0,.15,0c.76,0,1.51.27,2.43.87.12.08.21.15.21.16s-.1-.05-.23-.13c-.6-.39-1.1-.63-1.59-.76-.28-.07-.47-.1-.74-.1h-.24s-.01.17-.01.17c-.01.15-.04.36-.08.56v.06s.27.01.27.01c.79.03,1.13.07,1.51.15.28.06.95.25.98.28s0,.02-.42-.1c-.7-.2-1.05-.25-2.06-.3h-.29s-.05.17-.05.17c-.03.1-.11.4-.19.67-.08.27-.18.62-.22.79s-.09.4-.12.51c-.1.37-.12.57-.12.94,0,.36.02.51.11.83.08.3.23.68.41,1.05.31.63.57,1.31.75,1.94.02.08.05.13.13.2.39.4.99,2.1.86,2.48-.01.05-.04.13-.05.19-.04.19-.1.29-.28.46-.14.13-.17.17-.2.24-.06.19-.35.56-.46.6l-.05.02.04.14c.06.19.1.32.17.46.11.23.13.47.08.7-.06.25-.15.42-.44.89-.2.31-.31.51-.37.69l-.05.14.05.14c.19.48.27.91.36,2.03.06.8.12,1.19.18,1.3.15.25.56.32.67.11.03-.06.03-.14-.01-.36,0-.05-.01-.1,0-.11.01-.01.07.02.11.08.03.04.04.08.04.24,0,.18,0,.19.04.21.06.02.17-.03.25-.11.06-.06.07-.09.07-.16s-.01-.1-.09-.21c-.13-.19-.12-.27.03-.16.13.09.24.28.24.4,0,.03,0,.06.02.06.04,0,.21-.12.26-.18.03-.04.05-.08.05-.12,0-.14-.11-.26-.52-.55-.24-.17-.39-.31-.46-.42-.04-.08-.05-.11-.05-.22,0-.07-.01-.28-.03-.46-.03-.44-.03-.83,0-1,.03-.17.11-.37.2-.5.06-.09.08-.1.14-.11.14-.03.71-.17.95-.25.42-.13.84-.31,1.03-.44.34-.23.44-.98.26-2-.03-.17-.06-.35-.08-.41-.01-.05-.02-.1-.02-.11.01-.01.11.21.19.44.12.36.16.62.15,1.01-.01.4-.06.62-.23.93-.05.1-.08.21-.15.54-.19.87-.17,1.04.15,1.51.06.09.14.23.17.33.14.35.28.58.48.77.16.15.25.21.44.27.13.04.18.05.41.05h.27s.02-.04.02-.04c.01-.04.01-.11-.01-.21,0-.02.01,0,.05.05.08.13.16.2.2.18.03-.02.03-.05.03-.24,0-.12,0-.21.01-.2.04.06.11.2.12.27.02.08.02.08.09.07.25-.04.33-.22.21-.44-.13-.23-.4-.36-.62-.28-.05.02-.14.03-.21.03-.1,0-.13,0-.22-.05-.18-.1-.26-.23-.48-.77l-.15-.37v-.23c0-.19,0-.25.04-.36.1-.32.27-.58.64-.94.18-.18.25-.26.3-.36.17-.32.22-.6.21-1.11,0-.37-.04-.58-.14-1.02-.05-.2-.07-.25-.15-.38-.17-.27-.22-.43-.29-.83-.06-.36-.14-.58-.29-.84l-.09-.15.02-.14c0-.08.02-.51.02-.96,0-.88-.01-1.13-.11-1.78-.11-.78-.3-1.44-.5-1.75-.08-.12-.12-.21-.1-.23.06-.06.37.35.4.54,0,.04.04.17.07.3.13.5.27,1.27.35,1.98.07.6.08.8.08,1.45v.65s.07.23.07.23c.04.13.11.38.16.56.13.45.16.54.34.89.22.43.31.77.36,1.35.02.29,0,.63-.05.82-.05.2-.27.53-.58.87-.49.54-.6.71-.65,1.01-.03.18-.01.31.09.62.11.33.18.48.3.61.12.12.24.17.47.2.09,0,.19.03.23.04.04,0,.11.02.17.02.19,0,.44.18.48.36.07.29-.25.64-.65.72-.08.02-.18.02-.39,0-.35-.03-.58-.08-.83-.21-.26-.13-.44-.3-.54-.53-.04-.08-.08-.19-.09-.24-.03-.13-.15-.36-.28-.54-.29-.39-.34-.5-.37-.78-.02-.22.03-.77.08-.9.01-.03,0-.03-.06.02-.12.08-.35.16-.86.3-.73.21-.86.27-.96.4-.07.09-.09.19-.15.61-.04.3-.05.42-.04.57.02.36.11.66.27.87.1.14.18.21.42.4.1.08.21.17.24.21.08.1.15.27.15.35,0,.16-.15.33-.36.41-.05.02-.22.06-.36.09-.3.06-.36.08-.39.13-.02.03-.03.03-.15.03-.33-.03-.52-.15-.64-.4-.09-.19-.12-.38-.14-.97-.01-.29-.03-.59-.04-.66-.01-.07-.02-.21-.03-.32,0-.23-.03-.35-.18-.8-.16-.5-.2-.74-.16-.94,0-.03.1-.19.21-.34.48-.68.62-1,.62-1.41,0-.29-.05-.46-.22-.73-.18-.28-.29-.79-.29-1.35v-.19h-.12c-.16,0-.51-.06-.78-.14-.73-.2-1.15-.5-1.2-.85-.02-.12.05-.35.1-.33.02,0,.09.02.17.03.19.02.28.07.42.21.1.1.13.12.24.16.2.06.49.08.82.06.28-.02.57-.07.64-.11.02-.01.05-.06.07-.11.02-.05.05-.13.07-.18.07-.15.09-.28.06-.54-.04-.4-.14-.85-.3-1.28-.07-.2-.25-.65-.48-1.19-.29-.71-.52-1.34-.67-1.9l-.07-.24.02-.29c.06-.76.22-1.54.48-2.32.06-.18.12-.36.13-.4.03-.1.09-.4.09-.43,0-.02-.03-.03-.11-.03-.06,0-.11,0-.12-.02,0-.01.04-.02.11-.02h.13l.04-.22c.02-.12.05-.29.07-.38.02-.09.03-.16.02-.17,0,0-.06,0-.12,0-.16.02-.15-.02.02-.04l.13-.02.03-.14c.11-.48.29-.84.58-1.17.1-.12.17-.24.21-.4.03-.09.03-.21.04-.68,0-.53.01-.97.02-1.09,0-.11.11-.15.23-.1ZM3.21.28s.03.03,0,.1c-.08.15-.1.31-.1.79,0,.25,0,.46.01.47,0,0,.07,0,.15-.03.07-.03.33-.12.58-.21s.45-.16.46-.17-.07-.08-.16-.16-.35-.3-.56-.48c-.21-.19-.38-.34-.39-.34,0,0,0,.01.02.03ZM7.29.51c-.12.04-.46.28-.49.34-.01.03-.11.18-.23.34-.12.16-.23.33-.26.38l-.04.09.05.04c.18.13.23.18.29.29.04.07.09.15.11.17.04.04.05.04.1.02.2-.11.56-.87.65-1.35.01-.09.02-.17.02-.18,0-.01-.01-.05-.02-.07,0-.03-.03-.06-.05-.07-.02,0-.04-.02-.04-.02,0,0-.04.01-.08.03ZM5.56,5.28s-.09.14-.09.23c0,.06.03.17.05.17,0,0,.03-.04.05-.09.04-.11.11-.17.16-.15.03.01.02.02-.03.06-.04.03-.05.06-.05.1v.06l.34.06c.19.03.34.05.35.05,0,0-.11-.07-.24-.14-.22-.13-.25-.15-.25-.2-.01-.06-.08-.14-.14-.16-.05-.02-.11-.01-.15.02ZM7.28,5.79s-.05.07-.07.12c-.03.07-.03.08.02.13.1.12.29.1.43-.04.03-.03.03-.03.07.04.08.16.24.22.41.15t0,.03c-.08.12,0,.32.15.35.03,0,.05.02.06.04.01.04.04.03.1-.02.11-.09.08-.24-.1-.41-.07-.07-.1-.11-.1-.14,0-.08-.07-.2-.13-.24-.07-.04-.13-.05-.23,0s-.3.03-.41,0c-.12-.05-.16-.04-.21,0ZM5.88,5.77c-.5.09-.78.65-.48.98.04.04.09.09.13.11l.07.03.04-.05.04-.05-.07-.05c-.2-.13-.24-.38-.1-.55.1-.11.19-.15.36-.16.13,0,.16,0,.3.05.19.07,3.23,1.54,3.48,1.69.45.26.56.37.8.76.07.12.15.24.17.27l.03.05v-.07c-.03-.09.02-.34.09-.54.07-.19.25-.58.36-.75l.07-.12-.23.06c-.38.1-.53.12-.76.11-.14,0-.23-.02-.3-.05-.05-.02-.85-.4-1.76-.84s-1.69-.82-1.73-.83c-.09-.03-.27-.07-.35-.08-.03,0-.1,0-.16.02ZM7.57,6.15s0,.04.02.06c.02.03.03.03.07,0l.04-.03-.04-.03s-.08-.03-.09,0ZM5.73,6.28c-.15.05-.18.15-.09.28.07.1.14.15.2.15.03,0,.1-.03.17-.07.06-.04.16-.09.21-.1.36-.11.23-.27-.23-.28-.11,0-.22,0-.25.02ZM7.85,6.33s.05.07.07.05c0,0,0-.03-.01-.06-.02-.05-.06-.04-.06.01ZM11.68,6.95c-.15.08-.2.14-.34.4-.38.66-.53,1.11-.53,1.52,0,.23.03.37.12.55.1.2.11.21.27.21.17,0,.27-.04.31-.11.03-.05.03-.06,0-.08-.27-.16-.45-.32-.48-.45-.03-.11,0-.42.04-.61.05-.21.19-.48.33-.65.11-.14.15-.17.38-.35.12-.09.24-.13.35-.13.11,0,.13-.02.09-.11-.09-.22-.31-.29-.52-.18ZM8.05,7.35c-.02.1-.08.18-.12.18-.02,0-.06.17-.04.2,0,0,.06.05.13.09.19.11.34.23.37.29.05.1.07.12.16.12.24,0,.39-.13.39-.34,0-.15-.03-.19-.24-.31-.21-.13-.57-.31-.61-.31-.01,0-.03.04-.05.09ZM12.03,7.4c-.14.03-.26.1-.39.22-.25.25-.44.61-.5.94-.05.35.07.62.33.74.13.06.45.11.56.1.15-.03.33-.16.48-.35.31-.41.56-1.14.43-1.27-.06-.06-.17-.05-.28.02-.21.13-.45.67-.55,1.24-.03.14-.03.16-.05.13-.01-.02-.02-.11-.02-.2,0-.23.08-.48.27-.89.07-.15.23-.31.38-.39.05-.03.09-.05.1-.05.04-.02-.32-.2-.47-.23-.15-.03-.18-.03-.29,0ZM6.54,7.52c.06.05.85.49,1.1.62.33.17.56.21.64.11.05-.05.02-.11-.07-.2-.09-.09-.25-.18-.3-.18-.05,0-.05,0,0,.09.04.08.05.14.02.15-.03.02-.17-.04-.48-.23-.43-.25-.75-.4-.86-.4-.08,0-.08,0-.05.03ZM9.12,7.84c.07.2-.1.46-.34.53-.09.03-.28.02-.38,0-.09-.02-.18-.01-.18.02,0,.05.42.19.62.21.19.02.25,0,.37-.12.13-.13.21-.28.19-.38-.01-.11-.09-.23-.2-.29-.05-.03-.09-.05-.1-.05,0,0,0,.04.02.09Z"/>
</symbol>
</defs>
</svg>