<svg width="65" height="65" viewBox="0 0 65 65" fill="none" xmlns="http://www.w3.org/2000/svg">
<path d="M49.6325 11.5173C48.871 11.5173 48.1266 11.7431 47.4935 12.1662C46.8604 12.5892 46.3669 13.1905 46.0755 13.894C45.7841 14.5975 45.7079 15.3716 45.8564 16.1184C46.005 16.8653 46.3717 17.5513 46.9101 18.0897C47.4485 18.6281 48.1345 18.9948 48.8814 19.1434C49.6282 19.2919 50.4023 19.2157 51.1058 18.9243C51.8093 18.6329 52.4106 18.1394 52.8336 17.5063C53.2567 16.8732 53.4825 16.1288 53.4825 15.3673C53.4825 14.3463 53.0768 13.367 52.3548 12.645C51.6328 11.923 50.6535 11.5173 49.6325 11.5173V11.5173ZM64.3908 19.2815C64.3284 16.6195 63.8298 13.9858 62.915 11.4853C62.0992 9.34572 60.8295 7.40836 59.1933 5.8065C57.6046 4.162 55.6627 2.90032 53.5145 2.11692C51.0206 1.17419 48.3839 0.664219 45.7183 0.609004C42.3175 0.416504 41.2266 0.416504 32.5 0.416504C23.7733 0.416504 22.6825 0.416504 19.2816 0.609004C16.616 0.664219 13.9794 1.17419 11.4854 2.11692C9.34117 2.90825 7.40096 4.16884 5.80663 5.8065C4.16212 7.3952 2.90044 9.33708 2.11704 11.4853C1.17431 13.9792 0.664341 16.6159 0.609126 19.2815C0.416626 22.6823 0.416626 23.7732 0.416626 32.4998C0.416626 41.2265 0.416626 42.3173 0.609126 45.7182C0.664341 48.3838 1.17431 51.0204 2.11704 53.5144C2.90044 55.6626 4.16212 57.6045 5.80663 59.1932C7.40096 60.8308 9.34117 62.0914 11.4854 62.8828C13.9794 63.8255 16.616 64.3355 19.2816 64.3907C22.6825 64.5832 23.7733 64.5832 32.5 64.5832C41.2266 64.5832 42.3175 64.5832 45.7183 64.3907C48.3839 64.3355 51.0206 63.8255 53.5145 62.8828C55.6627 62.0994 57.6046 60.8377 59.1933 59.1932C60.8367 57.5973 62.1075 55.6582 62.915 53.5144C63.8298 51.0138 64.3284 48.3801 64.3908 45.7182C64.3908 42.3173 64.5833 41.2265 64.5833 32.4998C64.5833 23.7732 64.5833 22.6823 64.3908 19.2815V19.2815ZM58.6158 45.3332C58.5924 47.3697 58.2236 49.3876 57.525 51.3007C57.0127 52.6969 56.1899 53.9585 55.1187 54.9903C54.0781 56.0506 52.8191 56.8717 51.4291 57.3965C49.516 58.0951 47.4982 58.464 45.4616 58.4873C42.2533 58.6478 41.0662 58.6798 32.6283 58.6798C24.1904 58.6798 23.0033 58.6798 19.795 58.4873C17.6803 58.5269 15.5747 58.2013 13.5708 57.5248C12.2418 56.9733 11.0406 56.1542 10.0416 55.1186C8.97674 54.0879 8.16425 52.8252 7.66746 51.429C6.88417 49.4885 6.44972 47.4248 6.38413 45.3332C6.38413 42.1248 6.19163 40.9378 6.19163 32.4998C6.19163 24.0619 6.19163 22.8748 6.38413 19.6665C6.39851 17.5845 6.77859 15.5212 7.50704 13.5707C8.07186 12.2165 8.93881 11.0093 10.0416 10.0415C11.0164 8.93838 12.221 8.06227 13.5708 7.47484C15.5264 6.76914 17.5876 6.4003 19.6666 6.384C22.875 6.384 24.062 6.1915 32.5 6.1915C40.9379 6.1915 42.125 6.1915 45.3333 6.384C47.3699 6.40736 49.3877 6.77621 51.3008 7.47484C52.7588 8.01593 54.0673 8.89564 55.1187 10.0415C56.1701 11.027 56.9916 12.2319 57.525 13.5707C58.238 15.5243 58.6071 17.5868 58.6158 19.6665C58.7762 22.8748 58.8083 24.0619 58.8083 32.4998C58.8083 40.9378 58.7762 42.1248 58.6158 45.3332ZM32.5 16.0411C29.2461 16.0474 26.0671 17.0181 23.3647 18.8305C20.6623 20.6428 18.5578 23.2156 17.317 26.2235C16.0761 29.2315 15.7548 32.5398 16.3935 35.7304C17.0321 38.921 18.6022 41.8506 20.9053 44.1492C23.2084 46.4478 26.1411 48.0122 29.3329 48.6446C32.5247 49.2771 35.8323 48.9493 38.8379 47.7026C41.8435 46.456 44.4121 44.3464 46.2192 41.6405C48.0263 38.9346 48.9908 35.7537 48.9908 32.4998C48.995 30.3346 48.5712 28.1898 47.7435 26.1889C46.9159 24.188 45.7008 22.3705 44.1683 20.8409C42.6357 19.3113 40.8158 18.0998 38.8133 17.2761C36.8108 16.4523 34.6652 16.0326 32.5 16.0411V16.0411ZM32.5 43.1836C30.3869 43.1836 28.3213 42.557 26.5644 41.3831C24.8075 40.2091 23.4381 38.5405 22.6295 36.5883C21.8208 34.6361 21.6093 32.488 22.0215 30.4155C22.4337 28.3431 23.4513 26.4394 24.9454 24.9453C26.4396 23.4511 28.3432 22.4336 30.4157 22.0214C32.4881 21.6091 34.6363 21.8207 36.5885 22.6293C38.5407 23.438 40.2092 24.8073 41.3832 26.5643C42.5571 28.3212 43.1837 30.3868 43.1837 32.4998C43.1837 33.9028 42.9074 35.2921 42.3705 36.5883C41.8336 37.8845 41.0466 39.0623 40.0545 40.0544C39.0624 41.0465 37.8847 41.8334 36.5885 42.3703C35.2922 42.9072 33.903 43.1836 32.5 43.1836V43.1836Z" fill="white"/>
</svg>
